<?xml version="1.0" encoding="us-ascii" standalone="no"?><svg xmlns="http://www.w3.org/2000/svg" xmlns:xlink="http://www.w3.org/1999/xlink" contentStyleType="text/css" height="544px" preserveAspectRatio="none" style="width:1326px;height:544px;background:#DDDDDD;" version="1.1" viewBox="0 0 1326 544" width="1326px" zoomAndPan="magnify"><defs/><g><rect fill="#DDDDDD" height="544" style="stroke:none;stroke-width:1.0;" width="1326" x="0" y="0"/><!--class EnvironmentManager--><g id="elem_EnvironmentManager"><rect codeLine="5" fill="#F1F1F1" height="93.9219" id="EnvironmentManager" rx="2.5" ry="2.5" style="stroke:#181818;stroke-width:0.5;" width="562" x="287" y="59"/><ellipse cx="496.25" cy="80.3516" fill="#ADD1B2" rx="11" ry="11" style="stroke:#181818;stroke-width:1.0;"/><path d="M498.25,76.8516 Q498.4531,76.3516 498.6875,76.1016 Q498.9219,75.8516 499.1875,75.8516 Q499.6563,75.8516 499.9531,76.1328 Q500.25,76.4141 500.25,77.0703 L500.25,78.6328 Q500.25,79.2891 499.9688,79.5703 Q499.6875,79.8516 499.25,79.8516 Q498.8594,79.8516 498.6094,79.6797 Q498.3594,79.5078 498.25,79.0547 Q498.2031,78.7422 498.0313,78.5703 Q497.7188,78.2422 497.1563,78.0547 Q496.5938,77.8516 496.0313,77.8516 Q495.3281,77.8516 494.7344,78.1328 Q494.1563,78.4141 493.7031,79.0391 Q493.25,79.6641 493.25,80.5234 L493.25,81.4453 Q493.25,82.4766 494.0938,83.1641 Q494.9375,83.8516 496.4375,83.8516 Q497.3281,83.8516 497.9531,83.6484 Q498.3125,83.5391 498.7188,83.1797 Q498.9844,82.9766 499.125,82.9141 Q499.2656,82.8516 499.4375,82.8516 Q499.7656,82.8516 500,83.1172 Q500.25,83.3672 500.25,83.7266 Q500.25,84.0703 499.9063,84.4766 Q499.4063,85.0703 498.6094,85.3984 Q497.5625,85.8516 496.2813,85.8516 Q494.7813,85.8516 493.5781,85.2578 Q492.6094,84.7891 491.9219,83.7734 Q491.25,82.7578 491.25,81.5547 L491.25,80.4609 Q491.25,79.2109 491.8438,78.1172 Q492.4531,77.0234 493.5,76.4453 Q494.5625,75.8516 495.75,75.8516 Q496.4688,75.8516 497.0938,76.1016 Q497.7188,76.3516 498.25,76.8516 Z " fill="#000000"/><text fill="#000000" font-family="sans-serif" font-size="12" font-style="italic" lengthAdjust="spacing" textLength="64" x="552.25" y="76.457">&#171;singleton&#187;</text><text fill="#000000" font-family="sans-serif" font-size="14" lengthAdjust="spacing" textLength="135" x="516.75" y="93.627">EnvironmentManager</text><line style="stroke:#181818;stroke-width:0.5;" x1="288" x2="848" y1="101.7031" y2="101.7031"/><rect fill="none" height="6" style="stroke:#C82930;stroke-width:1.0;" width="6" x="295" y="113.0078"/><text fill="#000000" font-family="sans-serif" font-size="14" lengthAdjust="spacing" textLength="208" x="307" y="120.2363">controller: EnvironmentController</text><line style="stroke:#181818;stroke-width:0.5;" x1="288" x2="848" y1="127.3125" y2="127.3125"/><ellipse cx="298" cy="141.6172" fill="#84BE84" rx="3" ry="3" style="stroke:#038048;stroke-width:1.0;"/><text fill="#000000" font-family="sans-serif" font-size="14" lengthAdjust="spacing" textLength="536" x="307" y="145.8457">addController(constructor: Function&lt;EnvironmentController, EnvironmentController&gt;)</text></g><path d="M6,79.5 L6,122.2031 A0,0 0 0 0 6,122.2031 L252,122.2031 A0,0 0 0 0 252,122.2031 L252,104.8516 L291,140.1172 L252,96.8516 L252,89.5 L242,79.5 L6,79.5 A0,0 0 0 0 6,79.5 " fill="#FEFFDD" style="stroke:#181818;stroke-width:0.5;"/><path d="M242,79.5 L242,89.5 L252,89.5 L242,79.5 " fill="#FEFFDD" style="stroke:#181818;stroke-width:0.5;"/><text fill="#000000" font-family="sans-serif" font-size="13" lengthAdjust="spacing" textLength="225" x="12" y="97.9951">The param would usually be something</text><text fill="#000000" font-family="sans-serif" font-size="13" lengthAdjust="spacing" textLength="129" x="12" y="114.3467">like MyDecorator::new</text><!--class EnvironmentController--><g id="elem_EnvironmentController"><rect codeLine="14" fill="#F1F1F1" height="198.4844" id="EnvironmentController" rx="2.5" ry="2.5" style="stroke:#181818;stroke-width:0.5;" width="422" x="884" y="7"/><ellipse cx="1020.75" cy="23" fill="#B4A7E5" rx="11" ry="11" style="stroke:#181818;stroke-width:1.0;"/><path d="M1021.75,20 L1021.75,26 L1023.75,26 L1024.2344,26 L1024.75,26.625 L1024.75,27 L1024.75,27.375 L1024.2344,28 L1023.75,28 L1017.75,28 L1017.2656,28 L1016.75,27.375 L1016.75,27 L1016.75,26.625 L1017.2656,26 L1017.75,26 L1019.75,26 L1019.75,20 L1017.75,20 L1017.2656,20 L1016.75,19.375 L1016.75,19 L1016.75,18.625 L1017.2656,18 L1017.75,18 L1023.75,18 L1024.2344,18 L1024.75,18.625 L1024.75,19 L1024.75,19.375 L1024.2344,20 L1023.75,20 L1021.75,20 Z " fill="#000000"/><text fill="#000000" font-family="sans-serif" font-size="14" font-style="italic" lengthAdjust="spacing" textLength="140" x="1041.25" y="28.7285">EnvironmentController</text><line style="stroke:#181818;stroke-width:0.5;" x1="885" x2="1305" y1="39" y2="39"/><ellipse cx="895" cy="53.3047" fill="#84BE84" rx="3" ry="3" style="stroke:#038048;stroke-width:1.0;"/><text fill="#000000" font-family="sans-serif" font-size="14" font-style="italic" lengthAdjust="spacing" textLength="396" x="904" y="57.5332">getLocalTemperatureChange(world: World, pos: BlockPos): int</text><ellipse cx="895" cy="70.9141" fill="#84BE84" rx="3" ry="3" style="stroke:#038048;stroke-width:1.0;"/><text fill="#000000" font-family="sans-serif" font-size="14" font-style="italic" lengthAdjust="spacing" textLength="290" x="904" y="75.1426">getOnFireWarmthRate(entity: LivingEntity): int</text><ellipse cx="895" cy="88.5234" fill="#84BE84" rx="3" ry="3" style="stroke:#038048;stroke-width:1.0;"/><text fill="#000000" font-family="sans-serif" font-size="14" font-style="italic" lengthAdjust="spacing" textLength="265" x="904" y="92.752">getHotFloorWarmth(state: BlockState): int</text><ellipse cx="895" cy="106.1328" fill="#84BE84" rx="3" ry="3" style="stroke:#038048;stroke-width:1.0;"/><text fill="#000000" font-family="sans-serif" font-size="14" font-style="italic" lengthAdjust="spacing" textLength="322" x="904" y="110.3613">getPowderSnowFreezeRate(entity: LivingEntity): int</text><ellipse cx="895" cy="123.7422" fill="#84BE84" rx="3" ry="3" style="stroke:#038048;stroke-width:1.0;"/><text fill="#000000" font-family="sans-serif" font-size="14" font-style="italic" lengthAdjust="spacing" textLength="249" x="904" y="127.9707">getSoakChange(entity: LivingEntity): int</text><ellipse cx="895" cy="141.3516" fill="#84BE84" rx="3" ry="3" style="stroke:#038048;stroke-width:1.0;"/><text fill="#000000" font-family="sans-serif" font-size="14" font-style="italic" lengthAdjust="spacing" textLength="327" x="904" y="145.5801">getHeatAtLocation(world: World, pos: BlockPos): int</text><ellipse cx="895" cy="158.9609" fill="#84BE84" rx="3" ry="3" style="stroke:#038048;stroke-width:1.0;"/><text fill="#000000" font-family="sans-serif" font-size="14" font-style="italic" lengthAdjust="spacing" textLength="291" x="904" y="163.1895">getHeatFromBlockState(state: BlockState): int</text><ellipse cx="895" cy="176.5703" fill="#84BE84" rx="3" ry="3" style="stroke:#038048;stroke-width:1.0;"/><text fill="#000000" font-family="sans-serif" font-size="14" font-style="italic" lengthAdjust="spacing" textLength="225" x="904" y="180.7988">isHeatSource(state: BlockState): int</text><ellipse cx="895" cy="194.1797" fill="#84BE84" rx="3" ry="3" style="stroke:#038048;stroke-width:1.0;"/><text fill="#000000" font-family="sans-serif" font-size="14" font-style="italic" lengthAdjust="spacing" textLength="296" x="904" y="198.4082">isAreaHeated(world: World, pos: BlockPos): int</text></g><!--class EmptyEnvironmentController--><g id="elem_EmptyEnvironmentController"><rect codeLine="28" fill="#F1F1F1" height="32" id="EmptyEnvironmentController" rx="2.5" ry="2.5" style="stroke:#181818;stroke-width:0.5;" width="212" x="386" y="270.5"/><ellipse cx="401" cy="286.5" fill="#ADD1B2" rx="11" ry="11" style="stroke:#181818;stroke-width:1.0;"/><path d="M403,283 Q403.2031,282.5 403.4375,282.25 Q403.6719,282 403.9375,282 Q404.4063,282 404.7031,282.2813 Q405,282.5625 405,283.2188 L405,284.7813 Q405,285.4375 404.7188,285.7188 Q404.4375,286 404,286 Q403.6094,286 403.3594,285.8281 Q403.1094,285.6563 403,285.2031 Q402.9531,284.8906 402.7813,284.7188 Q402.4688,284.3906 401.9063,284.2031 Q401.3438,284 400.7813,284 Q400.0781,284 399.4844,284.2813 Q398.9063,284.5625 398.4531,285.1875 Q398,285.8125 398,286.6719 L398,287.5938 Q398,288.625 398.8438,289.3125 Q399.6875,290 401.1875,290 Q402.0781,290 402.7031,289.7969 Q403.0625,289.6875 403.4688,289.3281 Q403.7344,289.125 403.875,289.0625 Q404.0156,289 404.1875,289 Q404.5156,289 404.75,289.2656 Q405,289.5156 405,289.875 Q405,290.2188 404.6563,290.625 Q404.1563,291.2188 403.3594,291.5469 Q402.3125,292 401.0313,292 Q399.5313,292 398.3281,291.4063 Q397.3594,290.9375 396.6719,289.9219 Q396,288.9063 396,287.7031 L396,286.6094 Q396,285.3594 396.5938,284.2656 Q397.2031,283.1719 398.25,282.5938 Q399.3125,282 400.5,282 Q401.2188,282 401.8438,282.25 Q402.4688,282.5 403,283 Z " fill="#000000"/><text fill="#000000" font-family="sans-serif" font-size="14" lengthAdjust="spacing" textLength="180" x="415" y="292.2285">EmptyEnvironmentController</text></g><g id="elem_GMN7"><path d="M633.5,265 L633.5,282.5 L598.3,286.5 L633.5,290.5 L633.5,307.7031 A0,0 0 0 0 633.5,307.7031 L1024.5,307.7031 A0,0 0 0 0 1024.5,307.7031 L1024.5,275 L1014.5,265 L633.5,265 A0,0 0 0 0 633.5,265 " fill="#FEFFDD" style="stroke:#181818;stroke-width:0.5;"/><path d="M1014.5,265 L1014.5,275 L1024.5,275 L1014.5,265 " fill="#FEFFDD" style="stroke:#181818;stroke-width:0.5;"/><text fill="#000000" font-family="sans-serif" font-size="13" lengthAdjust="spacing" textLength="370" x="639.5" y="283.4951">All methods are implemented with a 0, false, or null return value,</text><text fill="#000000" font-family="sans-serif" font-size="13" lengthAdjust="spacing" textLength="132" x="639.5" y="299.8467">depending on the type.</text></g><!--class EnvironmentControllerDecorator--><g id="elem_EnvironmentControllerDecorator"><rect codeLine="36" fill="#F1F1F1" height="83.2188" id="EnvironmentControllerDecorator" rx="2.5" ry="2.5" style="stroke:#181818;stroke-width:0.5;" width="448" x="871" y="368"/><ellipse cx="989.25" cy="384" fill="#A9DCDF" rx="11" ry="11" style="stroke:#181818;stroke-width:1.0;"/><path d="M991,385.5 L987.7031,385.5 L987.2656,386.5 L987.2656,386.5 L987.7344,386.5 L988.25,387.125 L988.25,387.5 L988.25,387.875 L987.7344,388.5 L987.2656,388.5 L985.375,388.5 L984.7656,388.5 L984.25,387.875 L984.25,387.5 L984.25,387.125 L984.7656,386.5 L985.375,386.5 L987.6875,380.5 L986.8125,380.5 L985.7656,380.5 L985.25,379.875 L985.25,379.5 L985.25,379.125 L985.7656,378.5 L986.8125,378.5 L990.4844,378.5 L993.1719,386.5 L993.7344,386.5 L993.7344,386.5 L994.25,387.125 L994.25,387.5 L994.25,387.875 L993.7344,388.5 L993.1719,388.5 L991.2813,388.5 L990.7656,388.5 L990.25,387.875 L990.25,387.5 L990.25,387.125 L990.7656,386.5 L991.2813,386.5 L991.2813,386.5 L991,385.5 Z M990.4531,383.5 L989.25,379.9219 L988.2188,383.5 L990.4531,383.5 Z " fill="#000000"/><text fill="#000000" font-family="sans-serif" font-size="14" font-style="italic" lengthAdjust="spacing" textLength="203" x="1009.75" y="389.7285">EnvironmentControllerDecorator</text><line style="stroke:#181818;stroke-width:0.5;" x1="872" x2="1318" y1="400" y2="400"/><polygon fill="none" points="882,409.3047,886,413.3047,882,417.3047,878,413.3047" style="stroke:#B38D22;stroke-width:1.0;"/><text fill="#000000" font-family="sans-serif" font-size="14" lengthAdjust="spacing" textLength="208" x="891" y="418.5332">controller: EnvironmentController</text><line style="stroke:#181818;stroke-width:0.5;" x1="872" x2="1318" y1="425.6094" y2="425.6094"/><polygon fill="#FFFF44" points="882,434.9141,886,438.9141,882,442.9141,878,438.9141" style="stroke:#B38D22;stroke-width:1.0;"/><text fill="#000000" font-family="sans-serif" font-size="14" lengthAdjust="spacing" textLength="422" x="891" y="444.1426">EnvironmentControllerDecorator(controller: EnvironmentController)</text></g><g id="elem_GMN11"><path d="M444,388 L444,430.7031 A0,0 0 0 0 444,430.7031 L836,430.7031 A0,0 0 0 0 836,430.7031 L836,413.5 L870.99,409.5 L836,405.5 L836,398 L826,388 L444,388 A0,0 0 0 0 444,388 " fill="#FEFFDD" style="stroke:#181818;stroke-width:0.5;"/><path d="M826,388 L826,398 L836,398 L826,388 " fill="#FEFFDD" style="stroke:#181818;stroke-width:0.5;"/><text fill="#000000" font-family="sans-serif" font-size="13" lengthAdjust="spacing" textLength="371" x="450" y="406.4951">All EnvironmentController methods are implemented here by just</text><text fill="#000000" font-family="sans-serif" font-size="13" lengthAdjust="spacing" textLength="262" x="450" y="422.8467">calling the same method on its controller field</text></g><g id="elem_GMN14"><path d="M963,511 L963,537.3516 A0,0 0 0 0 963,537.3516 L1227,537.3516 A0,0 0 0 0 1227,537.3516 L1227,521 L1217,511 L1099,511 L1095,451.12 L1091,511 L963,511 A0,0 0 0 0 963,511 " fill="#FEFFDD" style="stroke:#181818;stroke-width:0.5;"/><path d="M1217,511 L1217,521 L1227,521 L1217,511 " fill="#FEFFDD" style="stroke:#181818;stroke-width:0.5;"/><text fill="#000000" font-family="sans-serif" font-size="13" lengthAdjust="spacing" textLength="243" x="969" y="529.4951">Extend this class to add your functionality</text></g><!--reverse link EnvironmentManager to EnvironmentController--><g id="link_EnvironmentManager_EnvironmentController"><path codeLine="51" d="M862.48,106 C869.59,106 876.7,106 883.81,106 " fill="none" id="EnvironmentManager-backto-EnvironmentController" style="stroke:#181818;stroke-width:1.0;"/><polygon fill="#181818" points="849.26,106,855.26,110,861.26,106,855.26,102,849.26,106" style="stroke:#181818;stroke-width:1.0;"/></g><!--reverse link EnvironmentController to EmptyEnvironmentController--><g id="link_EnvironmentController_EmptyEnvironmentController"><path codeLine="53" d="M864.59,204.94 C787.87,227.09 655.58,253.84 570.42,270.47 " fill="none" id="EnvironmentController-backto-EmptyEnvironmentController" style="stroke:#181818;stroke-width:1.0;stroke-dasharray:7.0,7.0;"/><polygon fill="none" points="862.59,198.23,883.76,199.12,866.65,211.63,862.59,198.23" style="stroke:#181818;stroke-width:1.0;"/></g><!--reverse link EnvironmentController to EnvironmentControllerDecorator--><g id="link_EnvironmentController_EnvironmentControllerDecorator"><path codeLine="54" d="M1082.51,225.42 C1081.68,275.81 1082.82,331.27 1085.95,367.79 " fill="none" id="EnvironmentController-backto-EnvironmentControllerDecorator" style="stroke:#181818;stroke-width:1.0;stroke-dasharray:7.0,7.0;"/><polygon fill="none" points="1075.52,225.14,1082.96,205.31,1089.52,225.46,1075.52,225.14" style="stroke:#181818;stroke-width:1.0;"/></g><!--link EnvironmentController to EnvironmentControllerDecorator--><g id="link_EnvironmentController_EnvironmentControllerDecorator"><path codeLine="55" d="M1107.75,205.31 C1109.23,254.97 1108.52,313.32 1105.62,354.71 " fill="none" id="EnvironmentController-to-EnvironmentControllerDecorator" style="stroke:#181818;stroke-width:1.0;"/><polygon fill="#181818" points="1104.58,367.79,1109.0485,362.1302,1105.5427,355.8287,1101.0742,361.4884,1104.58,367.79" style="stroke:#181818;stroke-width:1.0;"/></g><!--SRC=[dLJ1Rjim3BthAmZqadHniBCH5EYw13kqMB4Kw5cnc5YBB0OItSph-k-ZdAJfCBjfwujjGOzwx-cHfJK8M6suWGgh1GOLrzPlTD0LB7InNWMglRaYHm7EJFieLJWT8qpzWmtaA_HyexrUOO3995g_SiZaBoxWKO4yMK6U0pc78N-9kNfURhTzqiOSbmO2YXpgWabGizeNRCbFEk6ZxgeNG_MaF362moK3BJi8v_a_fwgx4c6dVKkrCr37MZlNm08XKeLSYZhbx1hXflcA1GMT-EKUjmgzWNIQKjOpXgKki9kNsB8J_AWN8b4N_0Ghv6igjBkJcq0fMWUyAhLVuM1BmPaSxjDh11kAENnnLAnlAGvpaAEwQdttCnlmNeUAon-QSI04B3SvNDi7KJ1j__hXtuXdZYZi2WmYIudziVFqtO-yfQt1CFUqdGN4t_Y1m-UartljxsIDcYzR6rDKFcPSgZ4BL1srlbczZGayfpeKxm5T1jG9YEODZ2NGXzvB7TiRhttkWrsLk-3txbQNpa4ADfa8EY3OQkCmxK43MyibQFWyWgLs4KSWCy3N0WWe2VNme5sD8sLm8-6N6mBomD91t6nm_A8X3dhXlxbn9FBSJOVsE3izDdRxNYytE5bcg5wP4nqLMykwhUypiaHPM3JmiuwifCrTCYiv5NM5UrGoptA48rzOMdJcw6FBSK7CLBs1vVGN9wIChBZtdGbasa4Z4ONbVg9g9ptrugewPlfvbhL1ohA-Q-WsO_9dF7ujUVseyKbjdT0ioyvF8Fy2]--></g></svg>