<?xml version="1.0" encoding="us-ascii" standalone="no"?><svg xmlns="http://www.w3.org/2000/svg" xmlns:xlink="http://www.w3.org/1999/xlink" contentStyleType="text/css" height="533px" preserveAspectRatio="none" style="width:1390px;height:533px;background:#DDDDDD;" version="1.1" viewBox="0 0 1390 533" width="1390px" zoomAndPan="magnify"><defs/><g><rect fill="#DDDDDD" height="533" style="stroke:none;stroke-width:1.0;" width="1390" x="0" y="0"/><!--class EnvironmentManager--><g id="elem_EnvironmentManager"><rect codeLine="5" fill="#F1F1F1" height="93.9219" id="EnvironmentManager" rx="2.5" ry="2.5" style="stroke:#181818;stroke-width:0.5;" width="562" x="287" y="59"/><ellipse cx="496.25" cy="80.3516" fill="#ADD1B2" rx="11" ry="11" style="stroke:#181818;stroke-width:1.0;"/><path d="M498.25,76.8516 Q498.4531,76.3516 498.6875,76.1016 Q498.9219,75.8516 499.1875,75.8516 Q499.6563,75.8516 499.9531,76.1328 Q500.25,76.4141 500.25,77.0703 L500.25,78.6328 Q500.25,79.2891 499.9688,79.5703 Q499.6875,79.8516 499.25,79.8516 Q498.8594,79.8516 498.6094,79.6797 Q498.3594,79.5078 498.25,79.0547 Q498.2031,78.7422 498.0313,78.5703 Q497.7188,78.2422 497.1563,78.0547 Q496.5938,77.8516 496.0313,77.8516 Q495.3281,77.8516 494.7344,78.1328 Q494.1563,78.4141 493.7031,79.0391 Q493.25,79.6641 493.25,80.5234 L493.25,81.4453 Q493.25,82.4766 494.0938,83.1641 Q494.9375,83.8516 496.4375,83.8516 Q497.3281,83.8516 497.9531,83.6484 Q498.3125,83.5391 498.7188,83.1797 Q498.9844,82.9766 499.125,82.9141 Q499.2656,82.8516 499.4375,82.8516 Q499.7656,82.8516 500,83.1172 Q500.25,83.3672 500.25,83.7266 Q500.25,84.0703 499.9063,84.4766 Q499.4063,85.0703 498.6094,85.3984 Q497.5625,85.8516 496.2813,85.8516 Q494.7813,85.8516 493.5781,85.2578 Q492.6094,84.7891 491.9219,83.7734 Q491.25,82.7578 491.25,81.5547 L491.25,80.4609 Q491.25,79.2109 491.8438,78.1172 Q492.4531,77.0234 493.5,76.4453 Q494.5625,75.8516 495.75,75.8516 Q496.4688,75.8516 497.0938,76.1016 Q497.7188,76.3516 498.25,76.8516 Z " fill="#000000"/><text fill="#000000" font-family="sans-serif" font-size="12" font-style="italic" lengthAdjust="spacing" textLength="64" x="552.25" y="76.457">&#171;singleton&#187;</text><text fill="#000000" font-family="sans-serif" font-size="14" lengthAdjust="spacing" textLength="135" x="516.75" y="93.627">EnvironmentManager</text><line style="stroke:#181818;stroke-width:0.5;" x1="288" x2="848" y1="101.7031" y2="101.7031"/><rect fill="none" height="6" style="stroke:#C82930;stroke-width:1.0;" width="6" x="295" y="113.0078"/><text fill="#000000" font-family="sans-serif" font-size="14" lengthAdjust="spacing" textLength="208" x="307" y="120.2363">controller: EnvironmentController</text><line style="stroke:#181818;stroke-width:0.5;" x1="288" x2="848" y1="127.3125" y2="127.3125"/><ellipse cx="298" cy="141.6172" fill="#84BE84" rx="3" ry="3" style="stroke:#038048;stroke-width:1.0;"/><text fill="#000000" font-family="sans-serif" font-size="14" lengthAdjust="spacing" textLength="536" x="307" y="145.8457">addController(constructor: Function&lt;EnvironmentController, EnvironmentController&gt;)</text></g><path d="M6,79.5 L6,122.2031 A0,0 0 0 0 6,122.2031 L252,122.2031 A0,0 0 0 0 252,122.2031 L252,104.8516 L291,140.1172 L252,96.8516 L252,89.5 L242,79.5 L6,79.5 A0,0 0 0 0 6,79.5 " fill="#FEFFDD" style="stroke:#181818;stroke-width:0.5;"/><path d="M242,79.5 L242,89.5 L252,89.5 L242,79.5 " fill="#FEFFDD" style="stroke:#181818;stroke-width:0.5;"/><text fill="#000000" font-family="sans-serif" font-size="13" lengthAdjust="spacing" textLength="225" x="12" y="97.9951">The param would usually be something</text><text fill="#000000" font-family="sans-serif" font-size="13" lengthAdjust="spacing" textLength="129" x="12" y="114.3467">like MyDecorator::new</text><!--class EnvironmentController--><g id="elem_EnvironmentController"><rect codeLine="14" fill="#F1F1F1" height="198.4844" id="EnvironmentController" rx="2.5" ry="2.5" style="stroke:#181818;stroke-width:0.5;" width="422" x="884" y="7"/><ellipse cx="1020.75" cy="23" fill="#B4A7E5" rx="11" ry="11" style="stroke:#181818;stroke-width:1.0;"/><path d="M1021.75,20 L1021.75,26 L1023.75,26 L1024.2344,26 L1024.75,26.625 L1024.75,27 L1024.75,27.375 L1024.2344,28 L1023.75,28 L1017.75,28 L1017.2656,28 L1016.75,27.375 L1016.75,27 L1016.75,26.625 L1017.2656,26 L1017.75,26 L1019.75,26 L1019.75,20 L1017.75,20 L1017.2656,20 L1016.75,19.375 L1016.75,19 L1016.75,18.625 L1017.2656,18 L1017.75,18 L1023.75,18 L1024.2344,18 L1024.75,18.625 L1024.75,19 L1024.75,19.375 L1024.2344,20 L1023.75,20 L1021.75,20 Z " fill="#000000"/><text fill="#000000" font-family="sans-serif" font-size="14" font-style="italic" lengthAdjust="spacing" textLength="140" x="1041.25" y="28.7285">EnvironmentController</text><line style="stroke:#181818;stroke-width:0.5;" x1="885" x2="1305" y1="39" y2="39"/><ellipse cx="895" cy="53.3047" fill="#84BE84" rx="3" ry="3" style="stroke:#038048;stroke-width:1.0;"/><text fill="#000000" font-family="sans-serif" font-size="14" font-style="italic" lengthAdjust="spacing" textLength="396" x="904" y="57.5332">getLocalTemperatureChange(world: World, pos: BlockPos): int</text><ellipse cx="895" cy="70.9141" fill="#84BE84" rx="3" ry="3" style="stroke:#038048;stroke-width:1.0;"/><text fill="#000000" font-family="sans-serif" font-size="14" font-style="italic" lengthAdjust="spacing" textLength="290" x="904" y="75.1426">getOnFireWarmthRate(entity: LivingEntity): int</text><ellipse cx="895" cy="88.5234" fill="#84BE84" rx="3" ry="3" style="stroke:#038048;stroke-width:1.0;"/><text fill="#000000" font-family="sans-serif" font-size="14" font-style="italic" lengthAdjust="spacing" textLength="265" x="904" y="92.752">getHotFloorWarmth(state: BlockState): int</text><ellipse cx="895" cy="106.1328" fill="#84BE84" rx="3" ry="3" style="stroke:#038048;stroke-width:1.0;"/><text fill="#000000" font-family="sans-serif" font-size="14" font-style="italic" lengthAdjust="spacing" textLength="322" x="904" y="110.3613">getPowderSnowFreezeRate(entity: LivingEntity): int</text><ellipse cx="895" cy="123.7422" fill="#84BE84" rx="3" ry="3" style="stroke:#038048;stroke-width:1.0;"/><text fill="#000000" font-family="sans-serif" font-size="14" font-style="italic" lengthAdjust="spacing" textLength="249" x="904" y="127.9707">getSoakChange(entity: LivingEntity): int</text><ellipse cx="895" cy="141.3516" fill="#84BE84" rx="3" ry="3" style="stroke:#038048;stroke-width:1.0;"/><text fill="#000000" font-family="sans-serif" font-size="14" font-style="italic" lengthAdjust="spacing" textLength="327" x="904" y="145.5801">getHeatAtLocation(world: World, pos: BlockPos): int</text><ellipse cx="895" cy="158.9609" fill="#84BE84" rx="3" ry="3" style="stroke:#038048;stroke-width:1.0;"/><text fill="#000000" font-family="sans-serif" font-size="14" font-style="italic" lengthAdjust="spacing" textLength="291" x="904" y="163.1895">getHeatFromBlockState(state: BlockState): int</text><ellipse cx="895" cy="176.5703" fill="#84BE84" rx="3" ry="3" style="stroke:#038048;stroke-width:1.0;"/><text fill="#000000" font-family="sans-serif" font-size="14" font-style="italic" lengthAdjust="spacing" textLength="225" x="904" y="180.7988">isHeatSource(state: BlockState): int</text><ellipse cx="895" cy="194.1797" fill="#84BE84" rx="3" ry="3" style="stroke:#038048;stroke-width:1.0;"/><text fill="#000000" font-family="sans-serif" font-size="14" font-style="italic" lengthAdjust="spacing" textLength="296" x="904" y="198.4082">isAreaHeated(world: World, pos: BlockPos): int</text></g><!--class DefaultEnvironmentController--><g id="elem_DefaultEnvironmentController"><rect codeLine="28" fill="#F1F1F1" height="32" id="DefaultEnvironmentController" rx="2.5" ry="2.5" style="stroke:#181818;stroke-width:0.5;" width="218" x="1165" y="265"/><ellipse cx="1180" cy="281" fill="#ADD1B2" rx="11" ry="11" style="stroke:#181818;stroke-width:1.0;"/><path d="M1182,277.5 Q1182.2031,277 1182.4375,276.75 Q1182.6719,276.5 1182.9375,276.5 Q1183.4063,276.5 1183.7031,276.7813 Q1184,277.0625 1184,277.7188 L1184,279.2813 Q1184,279.9375 1183.7188,280.2188 Q1183.4375,280.5 1183,280.5 Q1182.6094,280.5 1182.3594,280.3281 Q1182.1094,280.1563 1182,279.7031 Q1181.9531,279.3906 1181.7813,279.2188 Q1181.4688,278.8906 1180.9063,278.7031 Q1180.3438,278.5 1179.7813,278.5 Q1179.0781,278.5 1178.4844,278.7813 Q1177.9063,279.0625 1177.4531,279.6875 Q1177,280.3125 1177,281.1719 L1177,282.0938 Q1177,283.125 1177.8438,283.8125 Q1178.6875,284.5 1180.1875,284.5 Q1181.0781,284.5 1181.7031,284.2969 Q1182.0625,284.1875 1182.4688,283.8281 Q1182.7344,283.625 1182.875,283.5625 Q1183.0156,283.5 1183.1875,283.5 Q1183.5156,283.5 1183.75,283.7656 Q1184,284.0156 1184,284.375 Q1184,284.7188 1183.6563,285.125 Q1183.1563,285.7188 1182.3594,286.0469 Q1181.3125,286.5 1180.0313,286.5 Q1178.5313,286.5 1177.3281,285.9063 Q1176.3594,285.4375 1175.6719,284.4219 Q1175,283.4063 1175,282.2031 L1175,281.1094 Q1175,279.8594 1175.5938,278.7656 Q1176.2031,277.6719 1177.25,277.0938 Q1178.3125,276.5 1179.5,276.5 Q1180.2188,276.5 1180.8438,276.75 Q1181.4688,277 1182,277.5 Z " fill="#000000"/><text fill="#000000" font-family="sans-serif" font-size="14" lengthAdjust="spacing" textLength="186" x="1194" y="286.7285">DefaultEnvironmentController</text></g><!--class EnvironmentControllerDecorator--><g id="elem_EnvironmentControllerDecorator"><rect codeLine="32" fill="#F1F1F1" height="83.2188" id="EnvironmentControllerDecorator" rx="2.5" ry="2.5" style="stroke:#181818;stroke-width:0.5;" width="448" x="871" y="357"/><ellipse cx="989.25" cy="373" fill="#A9DCDF" rx="11" ry="11" style="stroke:#181818;stroke-width:1.0;"/><path d="M991,374.5 L987.7031,374.5 L987.2656,375.5 L987.2656,375.5 L987.7344,375.5 L988.25,376.125 L988.25,376.5 L988.25,376.875 L987.7344,377.5 L987.2656,377.5 L985.375,377.5 L984.7656,377.5 L984.25,376.875 L984.25,376.5 L984.25,376.125 L984.7656,375.5 L985.375,375.5 L987.6875,369.5 L986.8125,369.5 L985.7656,369.5 L985.25,368.875 L985.25,368.5 L985.25,368.125 L985.7656,367.5 L986.8125,367.5 L990.4844,367.5 L993.1719,375.5 L993.7344,375.5 L993.7344,375.5 L994.25,376.125 L994.25,376.5 L994.25,376.875 L993.7344,377.5 L993.1719,377.5 L991.2813,377.5 L990.7656,377.5 L990.25,376.875 L990.25,376.5 L990.25,376.125 L990.7656,375.5 L991.2813,375.5 L991.2813,375.5 L991,374.5 Z M990.4531,372.5 L989.25,368.9219 L988.2188,372.5 L990.4531,372.5 Z " fill="#000000"/><text fill="#000000" font-family="sans-serif" font-size="14" font-style="italic" lengthAdjust="spacing" textLength="203" x="1009.75" y="378.7285">EnvironmentControllerDecorator</text><line style="stroke:#181818;stroke-width:0.5;" x1="872" x2="1318" y1="389" y2="389"/><polygon fill="none" points="882,398.3047,886,402.3047,882,406.3047,878,402.3047" style="stroke:#B38D22;stroke-width:1.0;"/><text fill="#000000" font-family="sans-serif" font-size="14" lengthAdjust="spacing" textLength="208" x="891" y="407.5332">controller: EnvironmentController</text><line style="stroke:#181818;stroke-width:0.5;" x1="872" x2="1318" y1="414.6094" y2="414.6094"/><polygon fill="#FFFF44" points="882,423.9141,886,427.9141,882,431.9141,878,427.9141" style="stroke:#B38D22;stroke-width:1.0;"/><text fill="#000000" font-family="sans-serif" font-size="14" lengthAdjust="spacing" textLength="422" x="891" y="433.1426">EnvironmentControllerDecorator(controller: EnvironmentController)</text></g><g id="elem_GMN8"><path d="M444,377 L444,419.7031 A0,0 0 0 0 444,419.7031 L836,419.7031 A0,0 0 0 0 836,419.7031 L836,402.5 L870.99,398.5 L836,394.5 L836,387 L826,377 L444,377 A0,0 0 0 0 444,377 " fill="#FEFFDD" style="stroke:#181818;stroke-width:0.5;"/><path d="M826,377 L826,387 L836,387 L826,377 " fill="#FEFFDD" style="stroke:#181818;stroke-width:0.5;"/><text fill="#000000" font-family="sans-serif" font-size="13" lengthAdjust="spacing" textLength="371" x="450" y="395.4951">All EnvironmentController methods are implemented here by just</text><text fill="#000000" font-family="sans-serif" font-size="13" lengthAdjust="spacing" textLength="262" x="450" y="411.8467">calling the same method on its controller field</text></g><g id="elem_GMN11"><path d="M963,500 L963,526.3516 A0,0 0 0 0 963,526.3516 L1227,526.3516 A0,0 0 0 0 1227,526.3516 L1227,510 L1217,500 L1099,500 L1095,440.12 L1091,500 L963,500 A0,0 0 0 0 963,500 " fill="#FEFFDD" style="stroke:#181818;stroke-width:0.5;"/><path d="M1217,500 L1217,510 L1227,510 L1217,500 " fill="#FEFFDD" style="stroke:#181818;stroke-width:0.5;"/><text fill="#000000" font-family="sans-serif" font-size="13" lengthAdjust="spacing" textLength="243" x="969" y="518.4951">Extend this class to add your functionality</text></g><!--reverse link EnvironmentManager to EnvironmentController--><g id="link_EnvironmentManager_EnvironmentController"><path codeLine="47" d="M862.48,106 C869.59,106 876.7,106 883.81,106 " fill="none" id="EnvironmentManager-backto-EnvironmentController" style="stroke:#181818;stroke-width:1.0;"/><polygon fill="#181818" points="849.26,106,855.26,110,861.26,106,855.26,102,849.26,106" style="stroke:#181818;stroke-width:1.0;"/></g><!--reverse link EnvironmentController to DefaultEnvironmentController--><g id="link_EnvironmentController_DefaultEnvironmentController"><path codeLine="49" d="M1211.13,219.24 C1229.86,237.34 1246.89,253.79 1258.48,265 " fill="none" id="EnvironmentController-backto-DefaultEnvironmentController" style="stroke:#181818;stroke-width:1.0;stroke-dasharray:7.0,7.0;"/><polygon fill="none" points="1206.05,224.06,1196.53,205.13,1215.77,213.99,1206.05,224.06" style="stroke:#181818;stroke-width:1.0;"/></g><!--reverse link EnvironmentController to EnvironmentControllerDecorator--><g id="link_EnvironmentController_EnvironmentControllerDecorator"><path codeLine="50" d="M1082.45,225.4 C1081.76,272.07 1082.88,322.56 1085.81,356.71 " fill="none" id="EnvironmentController-backto-EnvironmentControllerDecorator" style="stroke:#181818;stroke-width:1.0;stroke-dasharray:7.0,7.0;"/><polygon fill="none" points="1075.45,225.2,1082.86,205.35,1089.45,225.49,1075.45,225.2" style="stroke:#181818;stroke-width:1.0;"/></g><!--link EnvironmentController to EnvironmentControllerDecorator--><g id="link_EnvironmentController_EnvironmentControllerDecorator"><path codeLine="51" d="M1107.85,205.35 C1109.17,251.58 1108.47,304.92 1105.77,343.65 " fill="none" id="EnvironmentController-to-EnvironmentControllerDecorator" style="stroke:#181818;stroke-width:1.0;"/><polygon fill="#181818" points="1104.73,356.71,1109.198,351.0498,1105.6917,344.7486,1101.2237,350.4087,1104.73,356.71" style="stroke:#181818;stroke-width:1.0;"/></g><!--SRC=[dLHTRzf047o_Nx5INY2D-G4MGae9g0-96fL8ULxxrlQLyoswMuUwQVvxpq12gfgFn2_0SRCxivxPocW2gbVIGarrHbw5fN4hz5X3XlcozDmuFMNB7Yxqvb4gjnW2pDoJyUngSdA73aloC1u7uqfBmcuoWMS5yKboTkBPMlBfUypqxNXpxGjglJyQH50Gt-J24JLlN2w6tRWNVjLVTJ9KBygn45Wg1BZe8Poc_tHL3nN1LlkQ6wkX2GrQsq964BWcgQ8wPSsIuAwzePmzTlnIHsj5JaFNJIdZX7o1EVNpYcFP2dx6B4h4N5wW9Bdb7Er3V1CKYpQUfXMwaWPhzbQdyDXzNC6AGmfVBUVBUmx356AhlbhVtTnuUaHVI_K3XGQHW94sXLlp51NCDhyEmx-np2sptnOO18abTcqNtVV3o7jUQ_8Bn-kv9_fDdsY-O5pkj7-GDQ5SRyROMULpW-jgp3tNUwrdgpUX0o-uyVb7GDUUi0EIFeDnDFGkUpTKO6FbeC7YnTSky5zQzrVVFFngoelJOTtUErvkSBBCK1r9Pqz5TMtjWJnrkMGT03s1gLUMklz9GqNn86lXPnD4nN3PQ2AGcF20DUrGm0wC1DZpXSAGrViuRpXcBCBr6IndlwH3naKHTdCNXhXZe8t6W6Atnz169x_R63sRz399l2ahIP93hw5_6EC_ez5HTnp1ZKwgwuKcIN9v0laN]--></g></svg>